<svg width="285" height="72" viewBox="0 0 285 72" fill="none" xmlns="http://www.w3.org/2000/svg">
<rect width="72" height="72" rx="16" fill="#465FFF"/>
<path d="M20 38C20 37.4696 20.2107 36.9609 20.5858 36.5858C20.9609 36.2107 21.4696 36 22 36H26C26.5304 36 27.0391 36.2107 27.4142 36.5858C27.7893 36.9609 28 37.4696 28 38V48C28 48.5304 27.7893 49.0391 27.4142 49.4142C27.0391 49.7893 26.5304 50 26 50H22C21.4696 50 20.9609 49.7893 20.5858 49.4142C20.2107 49.0391 20 48.5304 20 48V38ZM32 30C32 29.4696 32.2107 28.9609 32.5858 28.5858C32.9609 28.2107 33.4696 28 34 28H38C38.5304 28 39.0391 28.2107 39.4142 28.5858C39.7893 28.9609 40 29.4696 40 30V48C40 48.5304 39.7893 49.0391 39.4142 49.4142C39.0391 49.7893 38.5304 50 38 50H34C33.4696 50 32.9609 49.7893 32.5858 49.4142C32.2107 49.0391 32 48.5304 32 48V30ZM44 24C44 23.4696 44.2107 22.9609 44.5858 22.5858C44.9609 22.2107 45.4696 22 46 22H50C50.5304 22 51.0391 22.2107 51.4142 22.5858C51.7893 22.9609 52 23.4696 52 24V48C52 48.5304 51.7893 49.0391 51.4142 49.4142C51.0391 49.7893 50.5304 50 50 50H46C45.4696 50 44.9609 49.7893 44.5858 49.4142C44.2107 49.0391 44 48.5304 44 48V24Z" fill="white"/>
<path d="M92.8 51L104.12 22.88H108.56L119.84 51H114.04L105.32 27.92H107.32L98.48 51H92.8ZM98.8 45.76V41.2H113.92V45.76H98.8ZM131.779 51.4C129.806 51.4 128.032 50.96 126.459 50.08C124.886 49.2 123.646 48 122.739 46.48C121.832 44.96 121.379 43.2533 121.379 41.36C121.379 39.44 121.832 37.72 122.739 36.2C123.646 34.68 124.886 33.48 126.459 32.6C128.059 31.6933 129.832 31.24 131.779 31.24C133.299 31.24 134.699 31.52 135.979 32.08C137.259 32.64 138.366 33.44 139.299 34.48L135.939 37.88C135.432 37.32 134.819 36.8933 134.099 36.6C133.406 36.3067 132.632 36.16 131.779 36.16C130.819 36.16 129.952 36.3867 129.179 36.84C128.432 37.2667 127.832 37.8667 127.379 38.64C126.952 39.3867 126.739 40.28 126.739 41.32C126.739 42.3333 126.952 43.24 127.379 44.04C127.832 44.8133 128.432 45.4267 129.179 45.88C129.952 46.3067 130.819 46.52 131.779 46.52C132.659 46.52 133.446 46.3733 134.139 46.08C134.859 45.76 135.472 45.3067 135.979 44.72L139.379 48.12C138.392 49.1867 137.259 50 135.979 50.56C134.699 51.12 133.299 51.4 131.779 51.4ZM156.147 51V39.92C156.147 38.7733 155.787 37.84 155.067 37.12C154.347 36.4 153.413 36.04 152.267 36.04C151.52 36.04 150.853 36.2 150.267 36.52C149.68 36.84 149.213 37.2933 148.867 37.88C148.547 38.4667 148.387 39.1467 148.387 39.92L146.347 38.88C146.347 37.36 146.667 36.04 147.307 34.92C147.947 33.7733 148.827 32.88 149.947 32.24C151.093 31.6 152.4 31.28 153.867 31.28C155.333 31.28 156.627 31.6 157.747 32.24C158.893 32.88 159.787 33.76 160.427 34.88C161.067 36 161.387 37.2933 161.387 38.76V51H156.147ZM143.147 51V22.08H148.387V51H143.147ZM166.408 51V31.68H171.688V51H166.408ZM169.048 28.56C168.194 28.56 167.488 28.28 166.928 27.72C166.368 27.1333 166.088 26.4133 166.088 25.56C166.088 24.7333 166.368 24.0267 166.928 23.44C167.488 22.8533 168.194 22.56 169.048 22.56C169.928 22.56 170.634 22.8533 171.168 23.44C171.728 24.0267 172.008 24.7333 172.008 25.56C172.008 26.4133 171.728 27.1333 171.168 27.72C170.634 28.28 169.928 28.56 169.048 28.56ZM186.369 51.4C184.343 51.4 182.543 50.9733 180.969 50.12C179.396 49.24 178.143 48.04 177.209 46.52C176.303 45 175.849 43.2667 175.849 41.32C175.849 39.4 176.289 37.6933 177.169 36.2C178.076 34.68 179.303 33.48 180.849 32.6C182.396 31.6933 184.116 31.24 186.009 31.24C187.876 31.24 189.516 31.6667 190.929 32.52C192.369 33.3467 193.489 34.4933 194.289 35.96C195.116 37.4 195.529 39.04 195.529 40.88C195.529 41.2267 195.503 41.5867 195.449 41.96C195.423 42.3067 195.356 42.7067 195.249 43.16L179.009 43.2V39.28L192.809 39.24L190.689 40.88C190.636 39.7333 190.423 38.7733 190.049 38C189.703 37.2267 189.183 36.64 188.489 36.24C187.823 35.8133 186.996 35.6 186.009 35.6C184.969 35.6 184.063 35.84 183.289 36.32C182.516 36.7733 181.916 37.4267 181.489 38.28C181.089 39.1067 180.889 40.0933 180.889 41.24C180.889 42.4133 181.103 43.44 181.529 44.32C181.983 45.1733 182.623 45.84 183.449 46.32C184.276 46.7733 185.236 47 186.329 47C187.316 47 188.209 46.84 189.009 46.52C189.809 46.1733 190.503 45.6667 191.089 45L194.169 48.08C193.236 49.1733 192.089 50 190.729 50.56C189.396 51.12 187.943 51.4 186.369 51.4ZM205.538 51L197.018 31.68H202.778L208.898 47.6H206.058L212.218 31.68H217.778L209.298 51H205.538ZM229.649 51.4C227.622 51.4 225.822 50.9733 224.249 50.12C222.676 49.24 221.422 48.04 220.489 46.52C219.582 45 219.129 43.2667 219.129 41.32C219.129 39.4 219.569 37.6933 220.449 36.2C221.356 34.68 222.582 33.48 224.129 32.6C225.676 31.6933 227.396 31.24 229.289 31.24C231.156 31.24 232.796 31.6667 234.209 32.52C235.649 33.3467 236.769 34.4933 237.569 35.96C238.396 37.4 238.809 39.04 238.809 40.88C238.809 41.2267 238.782 41.5867 238.729 41.96C238.702 42.3067 238.636 42.7067 238.529 43.16L222.289 43.2V39.28L236.089 39.24L233.969 40.88C233.916 39.7333 233.702 38.7733 233.329 38C232.982 37.2267 232.462 36.64 231.769 36.24C231.102 35.8133 230.276 35.6 229.289 35.6C228.249 35.6 227.342 35.84 226.569 36.32C225.796 36.7733 225.196 37.4267 224.769 38.28C224.369 39.1067 224.169 40.0933 224.169 41.24C224.169 42.4133 224.382 43.44 224.809 44.32C225.262 45.1733 225.902 45.84 226.729 46.32C227.556 46.7733 228.516 47 229.609 47C230.596 47 231.489 46.84 232.289 46.52C233.089 46.1733 233.782 45.6667 234.369 45L237.449 48.08C236.516 49.1733 235.369 50 234.009 50.56C232.676 51.12 231.222 51.4 229.649 51.4ZM243.41 51V22.88H248.85V51H243.41ZM268.581 51.44C266.527 51.44 264.607 51.0667 262.821 50.32C261.061 49.5733 259.514 48.5467 258.181 47.24C256.874 45.9067 255.847 44.36 255.101 42.6C254.354 40.8133 253.981 38.9067 253.981 36.88C253.981 34.8533 254.341 32.9733 255.061 31.24C255.807 29.48 256.834 27.9467 258.141 26.64C259.474 25.3067 261.021 24.28 262.781 23.56C264.541 22.8133 266.447 22.44 268.501 22.44C270.581 22.44 272.501 22.8133 274.261 23.56C276.021 24.28 277.554 25.3067 278.861 26.64C280.194 27.9467 281.234 29.48 281.981 31.24C282.727 33 283.101 34.8933 283.101 36.92C283.101 38.9467 282.727 40.84 281.981 42.6C281.234 44.36 280.194 45.9067 278.861 47.24C277.554 48.5467 276.021 49.5733 274.261 50.32C272.527 51.0667 270.634 51.44 268.581 51.44ZM268.501 46.36C270.314 46.36 271.887 45.96 273.221 45.16C274.554 44.36 275.594 43.2533 276.341 41.84C277.114 40.4267 277.501 38.7733 277.501 36.88C277.501 35.4933 277.287 34.2267 276.861 33.08C276.434 31.9333 275.821 30.9467 275.021 30.12C274.221 29.2667 273.274 28.6133 272.181 28.16C271.087 27.7067 269.861 27.48 268.501 27.48C266.741 27.48 265.181 27.88 263.821 28.68C262.487 29.4533 261.434 30.5467 260.661 31.96C259.914 33.3733 259.541 35.0133 259.541 36.88C259.541 38.2933 259.754 39.5867 260.181 40.76C260.634 41.9333 261.247 42.9333 262.021 43.76C262.821 44.5867 263.767 45.2267 264.861 45.68C265.981 46.1333 267.194 46.36 268.501 46.36Z" fill="white"/>
</svg>
