<svg width="72" height="72" viewBox="0 0 72 72" fill="none" xmlns="http://www.w3.org/2000/svg">
<rect width="72" height="72" rx="16" fill="#465FFF"/>
<path d="M20 38C20 37.4696 20.2107 36.9609 20.5858 36.5858C20.9609 36.2107 21.4696 36 22 36H26C26.5304 36 27.0391 36.2107 27.4142 36.5858C27.7893 36.9609 28 37.4696 28 38V48C28 48.5304 27.7893 49.0391 27.4142 49.4142C27.0391 49.7893 26.5304 50 26 50H22C21.4696 50 20.9609 49.7893 20.5858 49.4142C20.2107 49.0391 20 48.5304 20 48V38ZM32 30C32 29.4696 32.2107 28.9609 32.5858 28.5858C32.9609 28.2107 33.4696 28 34 28H38C38.5304 28 39.0391 28.2107 39.4142 28.5858C39.7893 28.9609 40 29.4696 40 30V48C40 48.5304 39.7893 49.0391 39.4142 49.4142C39.0391 49.7893 38.5304 50 38 50H34C33.4696 50 32.9609 49.7893 32.5858 49.4142C32.2107 49.0391 32 48.5304 32 48V30ZM44 24C44 23.4696 44.2107 22.9609 44.5858 22.5858C44.9609 22.2107 45.4696 22 46 22H50C50.5304 22 51.0391 22.2107 51.4142 22.5858C51.7893 22.9609 52 23.4696 52 24V48C52 48.5304 51.7893 49.0391 51.4142 49.4142C51.0391 49.7893 50.5304 50 50 50H46C45.4696 50 44.9609 49.7893 44.5858 49.4142C44.2107 49.0391 44 48.5304 44 48V24Z" fill="white"/>
</svg>
